{"title":"Stephen Kings IT DVDRip XviD[ExtraTorrent]","uid":5593173,"size":1442889728,"categoryP":"video","categoryS":"movies","magnet":"?xt=urn:btih:120478c1dbbecf067ab883958950ed4bf95e99ca&amp;dn=Stephen+Kings+IT+DVDRip+XviD%5BExtraTorrent%5D&amp;tr=udp%3A%2F%2Ftracker.openbittorrent.com%3A80&amp;tr=udp%3A%2F%2Fopen.demonii.com%3A1337&amp;tr=udp%3A%2F%2Ftracker.coppersurfer.tk%3A6969&amp;tr=udp%3A%2F%2Fexodus.desync.com%3A6969","seeders":1,"leechers":1,"uploader":"raymondhome","files":-1,"time":1274946415,"description":"Love for All and Sharing is the first step to solving all the problems of humanity.\n\nWebsites I want to share.\n\n    &lt;a href=&quot;\nhttp://www.shareintl.org/&quot; rel=&quot;nofollow&quot; target=&quot;_NEW&quot;&gt;\nhttp://www.shareintl.org/&lt;/a&gt;\n\n    &lt;a href=&quot;\nhttp://www.lightmiddleway.com&quot; rel=&quot;nofollow&quot; target=&quot;_NEW&quot;&gt;\nhttp://www.lightmiddleway.com&lt;/a&gt;\n\n\nThank you very much\n\nNo credit for me...credit to EVERYONE for sharing\n &lt;a href=&quot;\nhttp://thepiratebay.se/user/raymondhome/&quot; rel=&quot;nofollow&quot; target=&quot;_NEW&quot;&gt;\nhttp://thepiratebay.se/user/raymondhome/&lt;/a&gt;\n\nPLOT\nSeven youths have to defeat a demonic creature named Pennywise which dresses in a clown suit and terrorizes a 1960's town in Maine.\n\nDuration : 3.1 hours\nOverall bit rate : 1 024 Kbps\n\nVideo\nID : 0\nFormat : MPEG-4 Visual\nFormat settings, BVOP : Yes\nFormat settings, QPel : No\nFormat settings, GMC : No warppoints\nFormat settings, Matrix : Default (MPEG)\nCodec ID : XVID\nCodec ID/Hint : XviD\nDuration : 1h 33mn\nBit rate : 826 Kbps\nWidth : 544 pixels\nHeight : 304 pixels\nDisplay aspect ratio : 16:9\nFrame rate : 23.976 fps\nResolution : 8 bits\nScan type : Progressive\nBits/(Pixel*Frame) : 0.208\nStream size : 555 MiB (81%)\n\nAudio\nID : 1\nFormat : AC-3\nFormat/Info : Audio Coding 3\nFormat profile : Dolby Digital\nFormat_Settings_ModeExtension : CM (complete main)\nCodec ID : 2000\nDuration : 1h 33mn\nBit rate mode : Constant\nBit rate : 192 Kbps\nChannel(s) : 2 channels\nChannel positions : Front: L R\nSampling rate : 48.0 KHz\nStream size : 129 MiB (19%)\nAlignment : Aligned on interleaves\nInterleave, duration : 96 ms (2.30 video frames)\nInterleave, preload duration : 96 ms\n\ncredit Shedevil BIG BIG BIG TIME &amp; to all the people who made it possible for us to share this...especially EVERYONE involve in the production of the movie...IF YOU LIKE IT...BUY IT :)\n\n*****help what we can with others in need...the world is ONE big family*****","torrent":{"xt":"urn:btih:120478c1dbbecf067ab883958950ed4bf95e99ca","amp;dn":"Stephen+Kings+IT+DVDRip+XviD%5BExtraTorrent%5D","amp;tr":["udp%3A%2F%2Ftracker.openbittorrent.com%3A80","udp%3A%2F%2Fopen.demonii.com%3A1337","udp%3A%2F%2Ftracker.coppersurfer.tk%3A6969","udp%3A%2F%2Fexodus.desync.com%3A6969"],"infoHash":"120478c1dbbecf067ab883958950ed4bf95e99ca","infoHashBuffer":{"type":"Buffer","data":[18,4,120,193,219,190,207,6,122,184,131,149,137,80,237,75,249,94,153,202]},"announce":[],"urlList":[]}}